#!OML:ASF E:\Style4\Style4.ASF
:FULLY-SPECIFIED
:DEGREES
1290
root -0.0988599 17.5293 -2.22554 6.9238 9.36093 2.65056
lowerback 17.2287 1.86383 -2.18062
upperback 11.2784 2.21944 1.04619
thorax 2.29746 0.994968 2.002
lowerneck 3.00453 -6.11875 -6.81259
upperneck 0.386954 -8.35429 8.18791
head 0.288558 -4.22989 3.875
rclavicle 3.26007e-014 -1.19271e-014
rhumerus 24.4959 -2.15228 -46.4504
rradius 73.8068
rwrist -7.40029
rhand 50.0586 -3.71949
rfingers 7.12502
rthumb 69.99 0.513378
lclavicle 3.26007e-014 -1.19271e-014
lhumerus 51.181 -24.6542 43.5964
lradius 72.9089
lwrist -4.74198
lhand 27.3605 40.5754
lfingers 7.12502
lthumb 51.319 61.0771
rfemur -29.8452 -10.2304 17.2038
rtibia 42.047
rfoot -16.8466 -18.6364
rtoes -12.89
lfemur -30.3638 -3.91636 -19.8828
ltibia 37.0925
lfoot -12.8289 1.37131
ltoes -15.8957
1291
root -0.0949783 17.53 -2.22466 6.94811 9.41399 2.46909
lowerback 17.2466 1.7445 -1.96512
upperback 11.1462 2.09051 1.03783
thorax 2.15647 0.944075 1.88815
lowerneck 2.91717 -6.06311 -6.86113
upperneck 0.577494 -8.28649 8.32898
head 0.368905 -4.19409 3.92688
rclavicle 4.6118e-014 -1.35174e-014
rhumerus 25.0029 -2.79391 -46.2933
rradius 73.9197
rwrist -7.45352
rhand 49.7296 -3.99395
rfingers 7.12502
rthumb 69.7737 -0.437822
lclavicle 4.6118e-014 -1.35174e-014
lhumerus 51.2706 -24.6552 43.5779
lradius 72.8564
lwrist -4.70571
lhand 27.3536 40.5627
lfingers 7.12502
lthumb 51.3128 61.0678
rfemur -29.939 -10.2222 17.4373
rtibia 42.1397
rfoot -16.5488 -18.7579
rtoes -13.6422
lfemur -30.48 -3.92049 -19.6833
ltibia 37.1543
lfoot -12.7568 1.30591
ltoes -15.6981
1292
root -0.0881959 17.5282 -2.2202 6.97329 9.42716 2.48768
lowerback 17.2476 1.64845 -1.9122
upperback 11.0357 1.9709 0.959668
thorax 2.04506 0.891273 1.792
lowerneck 2.81125 -6.0404 -6.84178
upperneck 0.769579 -8.25971 8.40225
head 0.450088 -4.17773 3.9411
rclavicle 1.35174e-014 2.78299e-015
rhumerus 25.6099 -3.46106 -46.1181
rradius 73.9365
rwrist -7.54751
rhand 49.4282 -4.22511
rfingers 7.12502
rthumb 69.573 -1.27605
lclavicle 1.35174e-014 2.78299e-015
lhumerus 51.3604 -24.6734 43.4769
lradius 72.8559
lwrist -4.68129
lhand 27.153 40.4804
lfingers 7.12502
lthumb 51.1302 61.0888
rfemur -30.0093 -10.2253 17.405
rtibia 42.2765
rfoot -16.5211 -18.7891
rtoes -13.7368
lfemur -30.5435 -3.93412 -19.7191
ltibia 37.2441
lfoot -12.7767 1.20861
ltoes -15.265
1293
root -0.0838 17.5222 -2.2142 6.97697 9.41329 2.56222
lowerback 17.2502 1.58856 -1.9411
upperback 10.9279 1.88721 0.879311
thorax 1.93213 0.8523 1.73434
lowerneck 2.82301 -6.02972 -6.90132
upperneck 0.874186 -8.25403 8.5564
head 0.491735 -4.17523 4.00495
rclavicle 3.73715e-014 1.23246e-014
rhumerus 26.2295 -4.12366 -45.9963
rradius 73.8734
rwrist -7.42232
rhand 49.0316 -4.37164
rfingers 7.12502
rthumb 69.3053 -2.20281
lclavicle 3.73715e-014 1.23246e-014
lhumerus 51.4544 -24.7293 43.4134
lradius 72.8983
lwrist -4.73671
lhand 27.0607 40.3544
lfingers 7.12502
lthumb 51.0461 61.0101
rfemur -30.0676 -10.2048 17.3038
rtibia 42.4439
rfoot -16.5497 -18.8495
rtoes -14.1532
lfemur -30.5739 -3.93031 -19.8176
ltibia 37.3543
lfoot -12.8641 1.19694
ltoes -15.2187
1294
root -0.0791987 17.5159 -2.20902 6.97163 9.38529 2.571
lowerback 17.2361 1.54406 -1.89717
upperback 10.8307 1.83367 0.835718
thorax 1.83844 0.830394 1.67048
lowerneck 2.89276 -6.03902 -7.0055
upperneck 0.89528 -8.27567 8.72684
head 0.501455 -4.18834 4.08674
rclavicle 5.96354e-015 1.74931e-014
rhumerus 26.8135 -4.86008 -45.9972
rradius 73.778
rwrist -6.9739
rhand 48.789 -4.20585
rfingers 7.12502
rthumb 69.1396 -2.50426
lclavicle 5.96354e-015 1.74931e-014
lhumerus 51.5372 -24.7711 43.464
lradius 72.9871
lwrist -4.88358
lhand 27.1186 40.4016
lfingers 7.12502
lthumb 51.0988 61.0277
rfemur -30.1444 -10.1206 17.2653
rtibia 42.6312
rfoot -16.9358 -18.7352
rtoes -12.8622
lfemur -30.6137 -3.88326 -19.8484
ltibia 37.471
lfoot -12.9109 1.13061
ltoes -14.9739
1295
root -0.0729221 17.5086 -2.20546 6.94853 9.34968 2.59796
lowerback 17.2505 1.46973 -1.89838
upperback 10.7513 1.73499 0.817111
thorax 1.7495 0.782628 1.66514
lowerneck 2.88751 -6.01706 -7.11999
upperneck 0.930691 -8.25218 8.79191
head 0.520401 -4.177 4.13119
rclavicle 1.86858e-014 -1.15295e-014
rhumerus 27.5988 -5.46508 -46.0186
rradius 73.6298
rwrist -6.69662
rhand 48.7755 -4.14589
rfingers 7.12502
rthumb 69.1304 -2.47004
lclavicle 1.86858e-014 -1.15295e-014
lhumerus 51.5231 -24.6885 43.5817
lradius 73.1037
lwrist -4.934
lhand 27.1643 40.6929
lfingers 7.12502
lthumb 51.1404 61.2956
rfemur -30.212 -10.0734 17.2031
rtibia 42.822
rfoot -17.2471 -18.6293
rtoes -11.4785
lfemur -30.6553 -3.81963 -19.905
ltibia 37.6232
lfoot -13.0009 1.04749
ltoes -14.6036
